<svg width="65" height="25" viewBox="0 0 65 25" xmlns="http://www.w3.org/2000/svg" xmlns:xlink="http://www.w3.org/1999/xlink" style="position: relative;top: 1px;">
    <defs>
        <path id="a" d="M0 23.802h64.074V0H0z"></path>
    </defs>
    <g transform="matrix(1 0 0 -1 0 24.503)" fill="none" fill-rule="evenodd">
        <mask id="b" fill="#fff">
        <use xlink:href="#a"></use>
        </mask>
        <g mask="url(#b)" fill="#FFF">
        <path d="M54.342 13.836v2.749h3.077c.894 0 1.962-.23 1.962-1.33v-.044c0-.912-.734-1.375-2.182-1.375h-2.857Zm3.752-6.15h-3.752v2.879h3.643c1.49 0 2.246-.477 2.246-1.418v-.044c0-.94-.718-1.418-2.137-1.418Zm3.382 4.84c1.158.785 1.722 1.853 1.722 3.252v.043c0 1.11-.365 2.014-1.117 2.766-.931.93-2.37 1.423-4.161 1.423h-7.33V4.26h7.504c3.784 0 5.954 1.615 5.954 4.43v.042c0 1.81-.797 2.995-2.573 3.794Zm-16.002-.39v-.044c0-2.584-1.753-4.32-4.363-4.32h-2.357v8.725h2.357c2.609 0 4.363-1.752 4.363-4.362ZM41.11 20.01h-6.194l.004-15.75h6.19c2.358 0 4.496.809 6.024 2.273 1.503 1.443 2.33 3.433 2.33 5.603v.043c0 4.537-3.513 7.83-8.353 7.83h-.001Z" fill-rule="nonzero"></path>
        <path d="M31.474 20.035a1.92 1.92 0 0 0 1.92-1.92V4.258h-3.839v15.777h1.92Z"></path>
        <path d="M18.755 14.317c-.55.023-.647-.309.178-.483 1.165-.246.371.46-.178.483m-1.724 1.295c-1.652.535-.565-.788.22-.875.787-.087.95.495-.22.875m-4.865 1.196c-.481-.253.38-1.372 2.585-1.432 2.205-.06-.638 2.454-2.585 1.432M16.403.615c.693 1.29 2.202 3.17 5.43 6.962 4.825 5.671-9.475 3.767-11.927 8.058-2.018 3.536 5.494 6.078 10.032 8.044a12.8 12.8 0 0 0 5.643-8.861c.945-6.445-3.078-12.468-9.18-14.203m-2.869 9.14c-2.026-3.279 4.48-3.328 1.47-9.455-.088-.015-.175-.032-.265-.045C7.72-.772 1.2 4.083.173 11.1a12.798 12.798 0 0 0 2.112 9.113c-.327-7.404 13.138-7.395 11.247-10.457" fill-rule="nonzero"></path>
        <path d="M18.738 14.288c-.549.023-.647-.309.177-.483 1.164-.246.372.46-.177.483m-1.723 1.293c-1.65.534-.564-.786.222-.874.784-.086.948.495-.222.874m-4.86 1.195c-.48-.252.38-1.37 2.582-1.43 2.203-.06-.636 2.452-2.582 1.43M16.388.6c.692 1.288 2.2 3.166 5.425 6.955 4.821 5.665-9.467 3.763-11.916 8.051-2.016 3.532 5.489 6.072 10.024 8.037a12.787 12.787 0 0 0 5.637-8.854c.943-6.439-3.075-12.457-9.17-14.19M13.519 9.73c-2.023-3.276 4.477-3.325 1.47-9.447-.089-.014-.176-.032-.267-.045C7.713-.787 1.2 4.064.173 11.073a12.787 12.787 0 0 0 2.11 9.105C1.956 12.78 15.41 12.788 13.52 9.73" fill-rule="nonzero"></path>
        </g>
    </g>
</svg>